<svg xmlns="http://www.w3.org/2000/svg" viewBox="0 0 121.02 121.33"><defs><style>.cls-1{fill:#30827f;}.cls-2{fill:#bd6069;}.cls-3{fill:#2d2f31;}</style></defs><title>logo-Positivo</title><g id="Capa_2" data-name="Capa 2"><g id="Capa_1-2" data-name="Capa 1"><g id="_2" data-name="2"><path class="cls-1" d="M44.82,41.55l-18.14,0c-2.17,0-3.09-.79-3.45-2.91,0-.25-.1-.5-.14-.75,0-3.78,0-8.83,0-16.95,0-4.45,1.72-6.55,6.08-7.53l2.22-.48-.11-.34H.16l-.11.34,2.22.48c4.36,1,6.08,3.08,6.08,7.53,0,27.81,0,19.66,0,47.47,0,4.89-1.78,7-6.58,7.79-.58.1-1.16.22-1.73.34H0L0,77H31.4l0-.49h0c-.58-.11-1.15-.24-1.73-.34-4.8-.81-6.57-2.9-6.58-7.79,0-8,0-13,0-16.75,0-.22.09-.43.12-.65.36-2.12,1.28-2.91,3.45-2.91l18.66,0q-.15-1.16-.27-2.33Q44.85,43.59,44.82,41.55Z"/><path class="cls-2" d="M108.34,101.8c-3.61-5.8-7.15-11.64-10.73-17.46-2.32-3.77-5.72-6.28-8.71-9.52h2.67c10.32,0,17.39-6.65,17.43-17A17.18,17.18,0,0,0,91.75,40.77H82.47a18.73,18.73,0,0,1,10.91,17v.06a12.59,12.59,0,0,1-3.21,8.29l-7.7,8.68h.06l-4.91,5.75c6.36,10.56,12.59,21,18.93,31.3A3.38,3.38,0,0,0,99,113.09c4.7.12,9.4.06,14.1.06h7.51l.4-.79C113.54,112.46,111.36,106.64,108.34,101.8Z"/><path class="cls-3" d="M48.7,45.74C45.76,15.52,69.34,3,76.16,0c-6.79,6.29-14.1,15.94-14,30.05,0,5.52,3,11.73,5.12,15.46a52.57,52.57,0,0,1,6.34,18,55.42,55.42,0,0,1-.4,19.06c-2.86,14.46-13,31.85-32,38.74a38.79,38.79,0,0,0,13.28-18.95C61.12,82.34,50.6,65.27,48.7,45.74Z"/><circle class="cls-3" cx="73.63" cy="28.63" r="8.25"/></g></g></g></svg>